<svg width="28" height="22" viewBox="0 0 28 22" fill="none" xmlns="http://www.w3.org/2000/svg">
<path d="M8.66699 11.9999C8.95588 11.9999 9.19477 11.9055 9.38366 11.7166C9.57255 11.5277 9.66699 11.2888 9.66699 10.9999C9.66699 10.711 9.57255 10.4721 9.38366 10.2833C9.19477 10.0944 8.95588 9.99992 8.66699 9.99992C8.40033 9.99992 8.16699 10.0999 7.96699 10.2999C7.76699 10.4999 7.66699 10.7333 7.66699 10.9999C7.66699 11.2888 7.76144 11.5277 7.95033 11.7166C8.13921 11.9055 8.3781 11.9999 8.66699 11.9999ZM21.0003 21.6666C20.7114 21.6666 20.4725 21.5721 20.2837 21.3833C20.0948 21.1944 20.0003 20.9555 20.0003 20.6666V7.43325C20.0003 7.38881 19.9559 7.2777 19.867 7.09992L14.967 2.19992C14.6114 1.84436 14.5281 1.44436 14.717 0.999919C14.9059 0.555474 15.2448 0.333252 15.7337 0.333252C15.8892 0.333252 16.0337 0.36103 16.167 0.416585C16.3003 0.472141 16.4225 0.555474 16.5337 0.666585L21.7003 5.83325C21.8114 5.94436 21.8892 6.05547 21.9337 6.16658C21.9781 6.2777 22.0003 6.39992 22.0003 6.53325V20.6666C22.0003 20.9555 21.9059 21.1944 21.717 21.3833C21.5281 21.5721 21.2892 21.6666 21.0003 21.6666ZM26.3337 21.6666C26.0448 21.6666 25.8059 21.5721 25.617 21.3833C25.4281 21.1944 25.3337 20.9555 25.3337 20.6666V5.23325C25.3337 5.18881 25.2892 5.0777 25.2003 4.89992L22.5003 2.19992C22.1448 1.84436 22.0614 1.44436 22.2503 0.999919C22.4392 0.555474 22.7781 0.333252 23.267 0.333252C23.4226 0.333252 23.567 0.36103 23.7003 0.416585C23.8337 0.472141 23.9559 0.555474 24.067 0.666585L27.0337 3.63325C27.1448 3.74436 27.2225 3.85547 27.267 3.96658C27.3114 4.0777 27.3337 4.19992 27.3337 4.33325V20.6666C27.3337 20.9555 27.2392 21.1944 27.0503 21.3833C26.8614 21.5721 26.6225 21.6666 26.3337 21.6666ZM1.66699 21.6666C1.3781 21.6666 1.13921 21.5721 0.950326 21.3833C0.761437 21.1944 0.666992 20.9555 0.666992 20.6666V8.73325C0.666992 8.59992 0.689214 8.4777 0.733659 8.36658C0.778103 8.25547 0.855881 8.14436 0.966992 8.03325L7.96699 1.03325C8.0781 0.922141 8.18921 0.844363 8.30033 0.799918C8.41144 0.755474 8.53366 0.733252 8.66699 0.733252C8.80033 0.733252 8.92255 0.755474 9.03366 0.799918C9.14477 0.844363 9.25588 0.922141 9.36699 1.03325L16.367 8.03325C16.4781 8.14436 16.5559 8.25547 16.6003 8.36658C16.6448 8.4777 16.667 8.59992 16.667 8.73325V20.6666C16.667 20.9555 16.5725 21.1944 16.3837 21.3833C16.1948 21.5721 15.9559 21.6666 15.667 21.6666H9.66699V16.6666C9.66699 16.3777 9.57255 16.1388 9.38366 15.9499C9.19477 15.761 8.95588 15.6666 8.66699 15.6666C8.3781 15.6666 8.13921 15.761 7.95033 15.9499C7.76144 16.1388 7.66699 16.3777 7.66699 16.6666V21.6666H1.66699Z" fill="white"/>
</svg>
