<svg width="12" height="14" viewBox="0 0 12 14" fill="none" xmlns="http://www.w3.org/2000/svg">
<path d="M8.66699 12.3333H2.00033V3.66659C2.00033 3.29992 1.70033 2.99992 1.33366 2.99992C0.966992 2.99992 0.666992 3.29992 0.666992 3.66659V12.3333C0.666992 13.0666 1.26699 13.6666 2.00033 13.6666H8.66699C9.03366 13.6666 9.33366 13.3666 9.33366 12.9999C9.33366 12.6333 9.03366 12.3333 8.66699 12.3333ZM12.0003 9.66659V1.66659C12.0003 0.933252 11.4003 0.333252 10.667 0.333252H4.66699C3.93366 0.333252 3.33366 0.933252 3.33366 1.66659V9.66659C3.33366 10.3999 3.93366 10.9999 4.66699 10.9999H10.667C11.4003 10.9999 12.0003 10.3999 12.0003 9.66659ZM10.667 9.66659H4.66699V1.66659H10.667V9.66659Z" fill="#273270"/>
</svg>
