<svg width="24" height="27" viewBox="0 0 24 27" fill="none" xmlns="http://www.w3.org/2000/svg">
<circle cx="12" cy="12" r="12" fill="white" fill-opacity="0.5"/>
<path d="M12.04 20.14C11.64 20.14 11.3333 20.02 11.12 19.78C10.9067 19.54 10.8 19.2067 10.8 18.78V11.44C10.8 11 10.9067 10.6667 11.12 10.44C11.3333 10.2 11.64 10.08 12.04 10.08C12.44 10.08 12.7467 10.2 12.96 10.44C13.1867 10.6667 13.3 11 13.3 11.44V18.78C13.3 19.2067 13.1933 19.54 12.98 19.78C12.7667 20.02 12.4533 20.14 12.04 20.14ZM12.04 8.22C11.5733 8.22 11.2067 8.10667 10.94 7.88C10.6867 7.64 10.56 7.31333 10.56 6.9C10.56 6.47333 10.6867 6.14667 10.94 5.92C11.2067 5.69333 11.5733 5.58 12.04 5.58C12.52 5.58 12.8867 5.69333 13.14 5.92C13.3933 6.14667 13.52 6.47333 13.52 6.9C13.52 7.31333 13.3933 7.64 13.14 7.88C12.8867 8.10667 12.52 8.22 12.04 8.22Z" fill="#00008C"/>
</svg>
