<svg width="64" height="64" viewBox="0 0 64 64" fill="none" xmlns="http://www.w3.org/2000/svg">
<path d="M29.3333 31.9998C26.4 31.9998 23.8889 30.9554 21.8 28.8665C19.7111 26.7776 18.6667 24.2665 18.6667 21.3332C18.6667 18.3998 19.7111 15.8887 21.8 13.7998C23.8889 11.7109 26.4 10.6665 29.3333 10.6665C32.2667 10.6665 34.7778 11.7109 36.8667 13.7998C38.9556 15.8887 40 18.3998 40 21.3332C40 24.2665 38.9556 26.7776 36.8667 28.8665C34.7778 30.9554 32.2667 31.9998 29.3333 31.9998ZM57.0667 60.7998L50.4 54.1332C49.4667 54.6665 48.4667 55.1109 47.4 55.4665C46.3333 55.8221 45.2 55.9998 44 55.9998C40.6667 55.9998 37.8329 54.8336 35.4987 52.5012C33.1662 50.1669 32 47.3332 32 43.9998C32 40.6665 33.1662 37.8327 35.4987 35.4985C37.8329 33.1661 40.6667 31.9998 44 31.9998C47.3333 31.9998 50.1671 33.1661 52.5013 35.4985C54.8338 37.8327 56 40.6665 56 43.9998C56 45.1998 55.8222 46.3332 55.4667 47.3998C55.1111 48.4665 54.6667 49.4665 54.1333 50.3998L60.8 57.0665C61.2889 57.5554 61.5333 58.1776 61.5333 58.9332C61.5333 59.6887 61.2889 60.3109 60.8 60.7998C60.3111 61.2887 59.6889 61.5332 58.9333 61.5332C58.1778 61.5332 57.5556 61.2887 57.0667 60.7998ZM44 50.6665C45.8667 50.6665 47.4444 50.0221 48.7333 48.7332C50.0222 47.4443 50.6667 45.8665 50.6667 43.9998C50.6667 42.1332 50.0222 40.5554 48.7333 39.2665C47.4444 37.9776 45.8667 37.3332 44 37.3332C42.1333 37.3332 40.5556 37.9776 39.2667 39.2665C37.9778 40.5554 37.3333 42.1332 37.3333 43.9998C37.3333 45.8665 37.9778 47.4443 39.2667 48.7332C40.5556 50.0221 42.1333 50.6665 44 50.6665ZM13.3333 53.3332C11.8667 53.3332 10.6107 52.8114 9.56533 51.7678C8.52178 50.7225 8 49.4665 8 47.9998V45.9332C8 44.4221 8.37778 43.0221 9.13333 41.7332C9.88889 40.4443 10.9333 39.4665 12.2667 38.7998C14.5333 37.6443 17.0889 36.6665 19.9333 35.8665C22.7778 35.0665 25.9333 34.6665 29.4 34.6665C28.5111 36.0443 27.8329 37.5216 27.3653 39.0985C26.8996 40.6772 26.6667 42.3109 26.6667 43.9998C26.6667 45.6443 26.8996 47.255 27.3653 48.8318C27.8329 50.4105 28.5111 51.9109 29.4 53.3332H13.3333Z" fill="black" fill-opacity="0.05"/>
</svg>
