<svg width="28" height="22" viewBox="0 0 28 22" fill="none" xmlns="http://www.w3.org/2000/svg">
<path d="M1.66699 21.6666C1.3781 21.6666 1.13921 21.5722 0.950326 21.3833C0.761437 21.1944 0.666992 20.9555 0.666992 20.6666V8.73331C0.666992 8.59998 0.689214 8.47776 0.733659 8.36664C0.778103 8.25553 0.855881 8.14442 0.966992 8.03331L7.96699 1.03331C8.0781 0.922202 8.18921 0.844424 8.30033 0.79998C8.41144 0.755535 8.53366 0.733313 8.66699 0.733313C8.80033 0.733313 8.92255 0.755535 9.03366 0.79998C9.14477 0.844424 9.25588 0.922202 9.36699 1.03331L16.367 8.03331C16.4781 8.14442 16.5559 8.25553 16.6003 8.36664C16.6448 8.47776 16.667 8.59998 16.667 8.73331V20.6666C16.667 20.9555 16.5725 21.1944 16.3837 21.3833C16.1948 21.5722 15.9559 21.6666 15.667 21.6666H1.66699ZM2.66699 19.6666H7.66699V16.6666C7.66699 16.3778 7.76144 16.1389 7.95033 15.95C8.13921 15.7611 8.3781 15.6666 8.66699 15.6666C8.95588 15.6666 9.19477 15.7611 9.38366 15.95C9.57255 16.1389 9.66699 16.3778 9.66699 16.6666V19.6666H14.667V9.16665L8.66699 3.16665L2.66699 9.16665V19.6666ZM8.66699 12C8.3781 12 8.13921 11.9055 7.95033 11.7166C7.76144 11.5278 7.66699 11.2889 7.66699 11C7.66699 10.7333 7.76699 10.5 7.96699 10.3C8.16699 10.1 8.41144 9.99998 8.70033 9.99998C8.96699 9.99998 9.19477 10.0944 9.38366 10.2833C9.57255 10.4722 9.66699 10.7111 9.66699 11C9.66699 11.2889 9.57255 11.5278 9.38366 11.7166C9.19477 11.9055 8.95588 12 8.66699 12ZM21.0003 21.6666C20.7114 21.6666 20.4725 21.5722 20.2837 21.3833C20.0948 21.1944 20.0003 20.9555 20.0003 20.6666V7.43331C20.0003 7.38887 19.9559 7.27776 19.867 7.09998L14.967 2.19998C14.6114 1.84442 14.5281 1.44442 14.717 0.99998C14.9059 0.555535 15.2448 0.333313 15.7337 0.333313C15.8892 0.333313 16.0337 0.361091 16.167 0.416646C16.3003 0.472202 16.4225 0.555535 16.5337 0.666646L21.7003 5.83331C21.8114 5.94442 21.8892 6.05553 21.9337 6.16665C21.9781 6.27776 22.0003 6.39998 22.0003 6.53331V20.6666C22.0003 20.9555 21.9059 21.1944 21.717 21.3833C21.5281 21.5722 21.2892 21.6666 21.0003 21.6666ZM26.3337 21.6666C26.0448 21.6666 25.8059 21.5722 25.617 21.3833C25.4281 21.1944 25.3337 20.9555 25.3337 20.6666V5.23331C25.3337 5.18887 25.2892 5.07776 25.2003 4.89998L22.5003 2.19998C22.1448 1.84442 22.0614 1.44442 22.2503 0.99998C22.4392 0.555535 22.7781 0.333313 23.267 0.333313C23.4226 0.333313 23.567 0.361091 23.7003 0.416646C23.8337 0.472202 23.9559 0.555535 24.067 0.666646L27.0337 3.63331C27.1448 3.74442 27.2225 3.85553 27.267 3.96665C27.3114 4.07776 27.3337 4.19998 27.3337 4.33331V20.6666C27.3337 20.9555 27.2392 21.1944 27.0503 21.3833C26.8614 21.5722 26.6225 21.6666 26.3337 21.6666ZM2.66699 19.6666H14.667H2.66699Z" fill="white" fill-opacity="0.6"/>
</svg>
