<svg width="10" height="10" viewBox="0 0 10 10" fill="none" xmlns="http://www.w3.org/2000/svg">
<path d="M8.92834 0.535041C8.66834 0.275041 8.24834 0.275041 7.98834 0.535041L4.72834 3.78837L1.46834 0.528374C1.20834 0.268374 0.788343 0.268374 0.528343 0.528374C0.268344 0.788374 0.268344 1.20837 0.528343 1.46837L3.78834 4.72837L0.528343 7.98837C0.268344 8.24837 0.268344 8.66837 0.528343 8.92837C0.788343 9.18837 1.20834 9.18837 1.46834 8.92837L4.72834 5.66837L7.98834 8.92837C8.24834 9.18837 8.66834 9.18837 8.92834 8.92837C9.18834 8.66837 9.18834 8.24837 8.92834 7.98837L5.66834 4.72837L8.92834 1.46837C9.18168 1.21504 9.18168 0.788374 8.92834 0.535041Z" fill="black" fill-opacity="0.4"/>
</svg>
