<svg width="146" height="146" viewBox="0 0 146 146" fill="none" xmlns="http://www.w3.org/2000/svg">
<path opacity="0.05" d="M73 146C113.317 146 146 113.317 146 73C146 32.6832 113.317 0 73 0C32.6832 0 0 32.6832 0 73C0 113.317 32.6832 146 73 146Z" fill="black"/>
<g opacity="0.05">
<path opacity="0.5" d="M72.9637 115.58C96.4702 115.58 115.526 96.5244 115.526 73.0179C115.526 49.5114 96.4702 30.4556 72.9637 30.4556C49.4572 30.4556 30.4014 49.5114 30.4014 73.0179C30.4014 96.5244 49.4572 115.58 72.9637 115.58Z" fill="black"/>
</g>
<path d="M72.9638 101.122C88.4855 101.122 101.068 88.5397 101.068 73.018C101.068 57.4964 88.4855 44.9136 72.9638 44.9136C57.4422 44.9136 44.8594 57.4964 44.8594 73.018C44.8594 88.5397 57.4422 101.122 72.9638 101.122Z" fill="#73BE00"/>
<path d="M67.8592 86.2655L56.3192 72.5776C56.1114 72.3311 55.9542 72.046 55.8565 71.7387C55.7589 71.4314 55.7227 71.1079 55.7501 70.7866C55.7775 70.4653 55.8679 70.1526 56.0161 69.8662C56.1644 69.5799 56.3676 69.3255 56.6141 69.1177C56.8606 68.9099 57.1457 68.7526 57.453 68.655C57.7603 68.5573 58.0839 68.5212 58.4051 68.5486C58.7264 68.5759 59.0392 68.6663 59.3255 68.8146C59.6119 68.9628 59.8662 69.166 60.074 69.4126L68.1142 78.9412L85.9792 60.52C86.4368 60.0723 87.051 59.8209 87.6912 59.8193C88.3313 59.8178 88.9468 60.0661 89.4066 60.5115C89.8664 60.9568 90.1343 61.5641 90.1531 62.204C90.1719 62.8439 89.9402 63.4658 89.5074 63.9374L67.8592 86.2655Z" fill="white"/>
</svg>
