<svg width="500" height="500" viewBox="0 0 500 500" fill="none" xmlns="http://www.w3.org/2000/svg">
<path d="M250 500C388.071 500 500 388.071 500 250C500 111.929 388.071 0 250 0C111.929 0 0 111.929 0 250C0 388.071 111.929 500 250 500Z" fill="black" fill-opacity="0.03"/>
<path d="M86.4583 193.75C86.4583 159.232 114.441 131.25 148.958 131.25H351.042C385.559 131.25 413.542 159.232 413.542 193.75V303.646C413.542 332.698 389.99 356.25 360.937 356.25V413.922C360.937 417.471 356.784 419.396 354.077 417.101L282.292 356.25H148.958C114.44 356.25 86.4583 328.268 86.4583 293.75V193.75Z" fill="white"/>
<path d="M266.257 247.905L298.602 215.617C300.764 213.465 301.983 210.543 301.99 207.493C301.998 204.444 300.793 201.516 298.642 199.354C296.49 197.192 293.568 195.973 290.518 195.966C287.468 195.958 284.54 197.163 282.379 199.314L250.034 231.659L217.712 199.314C216.641 198.243 215.37 197.394 213.972 196.815C212.573 196.236 211.074 195.938 209.56 195.938C208.046 195.938 206.547 196.236 205.149 196.815C203.75 197.394 202.479 198.243 201.409 199.314C200.338 200.384 199.489 201.655 198.91 203.054C198.331 204.452 198.032 205.952 198.032 207.465C198.032 208.979 198.331 210.478 198.91 211.877C199.489 213.276 200.338 214.546 201.409 215.617L233.754 247.95L201.409 280.284C199.257 282.446 198.053 285.374 198.06 288.424C198.068 291.473 199.287 294.395 201.449 296.547C203.61 298.698 206.538 299.903 209.588 299.895C212.638 299.888 215.56 298.669 217.712 296.507L250.045 264.162L282.379 296.507C284.57 298.449 287.42 299.482 290.347 299.394C293.274 299.305 296.057 298.103 298.128 296.033C300.198 293.962 301.4 291.179 301.488 288.252C301.577 285.325 300.544 282.475 298.602 280.284L266.257 247.905Z" fill="#CC0000"/>
</svg>
