<svg width="32" height="32" viewBox="0 0 32 32" fill="none" xmlns="http://www.w3.org/2000/svg">
<path d="M7.14714 27.5352C6.83779 27.5352 6.57032 27.4219 6.34473 27.1954C6.1182 26.9698 6.00493 26.7023 6.00493 26.393V14.4712L3.7919 16.1845C3.62533 16.3272 3.45304 16.3806 3.27505 16.3444C3.0961 16.3092 2.94714 16.2083 2.82816 16.0417C2.70918 15.8751 2.65588 15.7024 2.66825 15.5234C2.67967 15.3454 2.76867 15.185 2.93524 15.0423L15.3211 5.58335C15.4162 5.51197 15.5176 5.45248 15.6252 5.40488C15.7318 5.35729 15.8565 5.3335 15.9992 5.3335C16.1182 5.3335 16.2372 5.35729 16.3562 5.40488C16.4752 5.45248 16.5823 5.51197 16.6774 5.58335L29.0633 15.0423C29.2298 15.185 29.3193 15.3454 29.3317 15.5234C29.3431 15.7024 29.2893 15.8751 29.1703 16.0417C29.0514 16.2083 28.9029 16.3035 28.7249 16.3272C28.5459 16.351 28.3732 16.3035 28.2066 16.1845L25.9936 14.4712V26.393C25.9936 26.7023 25.8808 26.9698 25.6552 27.1954C25.4287 27.4219 25.1607 27.5352 24.8514 27.5352H7.14714ZM7.43269 26.1074H24.5658V13.4003L15.9992 6.86834L7.43269 13.4003V26.1074ZM10.2882 20.0751C10.5738 20.0751 10.8298 19.9618 11.0563 19.7353C11.2819 19.5097 11.3947 19.2542 11.3947 18.9686C11.3947 18.6831 11.2819 18.427 11.0563 18.2005C10.8298 17.9749 10.5738 17.8621 10.2882 17.8621C10.0027 17.8621 9.74709 17.9749 9.5215 18.2005C9.29496 18.427 9.18169 18.6831 9.18169 18.9686C9.18169 19.2542 9.29496 19.5097 9.5215 19.7353C9.74709 19.9618 10.0027 20.0751 10.2882 20.0751ZM15.9992 20.0751C16.2848 20.0751 16.5408 19.9618 16.7674 19.7353C16.993 19.5097 17.1058 19.2542 17.1058 18.9686C17.1058 18.6831 16.993 18.427 16.7674 18.2005C16.5408 17.9749 16.2848 17.8621 15.9992 17.8621C15.7137 17.8621 15.4581 17.9749 15.2325 18.2005C15.006 18.427 14.8927 18.6831 14.8927 18.9686C14.8927 19.2542 15.006 19.5097 15.2325 19.7353C15.4581 19.9618 15.7137 20.0751 15.9992 20.0751ZM21.7103 20.0751C21.9958 20.0751 22.2519 19.9618 22.4784 19.7353C22.704 19.5097 22.8168 19.2542 22.8168 18.9686C22.8168 18.6831 22.704 18.427 22.4784 18.2005C22.2519 17.9749 21.9958 17.8621 21.7103 17.8621C21.4247 17.8621 21.1692 17.9749 20.9436 18.2005C20.717 18.427 20.6038 18.6831 20.6038 18.9686C20.6038 19.2542 20.717 19.5097 20.9436 19.7353C21.1692 19.9618 21.4247 20.0751 21.7103 20.0751Z" fill="white" fill-opacity="0.6"/>
</svg>
