<svg width="32" height="32" viewBox="0 0 32 32" fill="none" xmlns="http://www.w3.org/2000/svg">
<path d="M16 28C14.3556 28 12.8 27.6836 11.3333 27.0507C9.86667 26.4169 8.59467 25.5609 7.51733 24.4827C6.43911 23.4053 5.58311 22.1333 4.94933 20.6667C4.31644 19.2 4 17.6444 4 16C4 14.3333 4.31644 12.772 4.94933 11.316C5.58311 9.86089 6.43911 8.59422 7.51733 7.516C8.59467 6.43867 9.86667 5.58311 11.3333 4.94933C12.8 4.31644 14.3556 4 16 4C17.6667 4 19.228 4.31644 20.684 4.94933C22.1391 5.58311 23.4058 6.43867 24.484 7.516C25.5613 8.59422 26.4169 9.86089 27.0507 11.316C27.6836 12.772 28 14.3333 28 16C28 17.6444 27.6836 19.2 27.0507 20.6667C26.4169 22.1333 25.5613 23.4053 24.484 24.4827C23.4058 25.5609 22.1391 26.4169 20.684 27.0507C19.228 27.6836 17.6667 28 16 28ZM16 26.6667C16.7778 25.6667 17.4222 24.6836 17.9333 23.7173C18.4444 22.7502 18.8556 21.6667 19.1667 20.4667H12.8333C13.1889 21.7333 13.6111 22.8498 14.1 23.816C14.5889 24.7831 15.2222 25.7333 16 26.6667ZM14.3 26.4667C13.6778 25.7333 13.1111 24.8276 12.6 23.7493C12.0889 22.672 11.7111 21.5778 11.4667 20.4667H6.33333C7.11111 22.1111 8.2 23.4667 9.6 24.5333C11 25.6 12.5667 26.2444 14.3 26.4667ZM17.7 26.4667C19.4333 26.2444 21 25.6 22.4 24.5333C23.8 23.4667 24.8889 22.1111 25.6667 20.4667H20.5333C20.2 21.6 19.7778 22.7053 19.2667 23.7827C18.7556 24.8609 18.2333 25.7556 17.7 26.4667ZM5.8 19.1333H11.1667C11.0778 18.5778 11.0111 18.0444 10.9667 17.5333C10.9222 17.0222 10.9 16.5111 10.9 16C10.9 15.4889 10.9222 14.9778 10.9667 14.4667C11.0111 13.9556 11.0778 13.4222 11.1667 12.8667H5.8C5.64444 13.3333 5.528 13.8387 5.45067 14.3827C5.37244 14.9276 5.33333 15.4667 5.33333 16C5.33333 16.5333 5.37244 17.072 5.45067 17.616C5.528 18.1609 5.64444 18.6667 5.8 19.1333ZM12.5 19.1333H19.5C19.5889 18.5778 19.6556 18.0498 19.7 17.5493C19.7444 17.0498 19.7667 16.5333 19.7667 16C19.7667 15.4667 19.7444 14.9498 19.7 14.4493C19.6556 13.9498 19.5889 13.4222 19.5 12.8667H12.5C12.4111 13.4222 12.3444 13.9498 12.3 14.4493C12.2556 14.9498 12.2333 15.4667 12.2333 16C12.2333 16.5333 12.2556 17.0498 12.3 17.5493C12.3444 18.0498 12.4111 18.5778 12.5 19.1333ZM20.8333 19.1333H26.2C26.3556 18.6667 26.4724 18.1609 26.5507 17.616C26.628 17.072 26.6667 16.5333 26.6667 16C26.6667 15.4667 26.628 14.9276 26.5507 14.3827C26.4724 13.8387 26.3556 13.3333 26.2 12.8667H20.8333C20.9222 13.4222 20.9889 13.9556 21.0333 14.4667C21.0778 14.9778 21.1 15.4889 21.1 16C21.1 16.5111 21.0778 17.0222 21.0333 17.5333C20.9889 18.0444 20.9222 18.5778 20.8333 19.1333ZM20.5333 11.5333H25.6667C24.8889 9.84444 23.8164 8.48889 22.4493 7.46667C21.0831 6.44444 19.5 5.78889 17.7 5.5C18.3222 6.32222 18.8836 7.26133 19.384 8.31733C19.8836 9.37244 20.2667 10.4444 20.5333 11.5333ZM12.8333 11.5333H19.1667C18.8111 10.2889 18.3778 9.16089 17.8667 8.14933C17.3556 7.13867 16.7333 6.2 16 5.33333C15.2667 6.2 14.6444 7.13867 14.1333 8.14933C13.6222 9.16089 13.1889 10.2889 12.8333 11.5333ZM6.33333 11.5333H11.4667C11.7333 10.4444 12.1169 9.37244 12.6173 8.31733C13.1169 7.26133 13.6778 6.32222 14.3 5.5C12.4778 5.78889 10.8889 6.44978 9.53333 7.48267C8.17778 8.51644 7.11111 9.86667 6.33333 11.5333Z" fill="white" fill-opacity="0.6"/>
</svg>
