<svg width="32" height="32" viewBox="0 0 32 32" fill="none" xmlns="http://www.w3.org/2000/svg">
<path d="M16 28C14.3579 28 12.8051 27.6842 11.3415 27.0526C9.87874 26.4211 8.60505 25.5629 7.52042 24.4783C6.43663 23.3945 5.57895 22.1213 4.94737 20.6585C4.31579 19.1949 4 17.6421 4 16C4 14.3368 4.31579 12.7789 4.94737 11.3263C5.57895 9.87368 6.43663 8.60505 7.52042 7.52042C8.60505 6.43663 9.87874 5.57895 11.3415 4.94737C12.8051 4.31579 14.3579 4 16 4C17.6632 4 19.2211 4.31579 20.6737 4.94737C22.1263 5.57895 23.3945 6.43663 24.4783 7.52042C25.5629 8.60505 26.4211 9.87368 27.0526 11.3263C27.6842 12.7789 28 14.3368 28 16C28 17.6421 27.6842 19.1949 27.0526 20.6585C26.4211 22.1213 25.5629 23.3945 24.4783 24.4783C23.3945 25.5629 22.1263 26.4211 20.6737 27.0526C19.2211 27.6842 17.6632 28 16 28ZM16 26.0737C16.6526 25.2316 17.1949 24.3739 17.6269 23.5006C18.0581 22.6265 18.4211 21.6737 18.7158 20.6421H13.2842C13.5789 21.6947 13.9423 22.6577 14.3743 23.5309C14.8055 24.4051 15.3474 25.2526 16 26.0737ZM13.5684 25.7263C13.0842 25.0316 12.6476 24.2421 12.2585 23.3579C11.8686 22.4737 11.5684 21.5684 11.3579 20.6421H7.06316C7.73684 21.9474 8.63158 23.0476 9.74737 23.9427C10.8632 24.8371 12.1368 25.4316 13.5684 25.7263ZM18.4316 25.7263C19.8632 25.4316 21.1368 24.8371 22.2526 23.9427C23.3684 23.0476 24.2632 21.9474 24.9368 20.6421H20.6421C20.3895 21.5684 20.0737 22.4787 19.6947 23.3731C19.3158 24.2682 18.8947 25.0526 18.4316 25.7263ZM6.27368 18.7474H10.9789C10.8947 18.2842 10.8316 17.8261 10.7895 17.3731C10.7474 16.9208 10.7263 16.4632 10.7263 16C10.7263 15.5368 10.7474 15.0787 10.7895 14.6257C10.8316 14.1735 10.8947 13.7158 10.9789 13.2526H6.27368C6.14737 13.6737 6.05263 14.1158 5.98947 14.5789C5.92632 15.0421 5.89474 15.5158 5.89474 16C5.89474 16.4842 5.92632 16.9579 5.98947 17.4211C6.05263 17.8842 6.14737 18.3263 6.27368 18.7474ZM12.8737 18.7474H19.1263C19.2105 18.2842 19.2737 17.8316 19.3158 17.3895C19.3579 16.9474 19.3789 16.4842 19.3789 16C19.3789 15.5158 19.3579 15.0526 19.3158 14.6105C19.2737 14.1684 19.2105 13.7158 19.1263 13.2526H12.8737C12.7895 13.7158 12.7263 14.1684 12.6842 14.6105C12.6421 15.0526 12.6211 15.5158 12.6211 16C12.6211 16.4842 12.6421 16.9474 12.6842 17.3895C12.7263 17.8316 12.7895 18.2842 12.8737 18.7474ZM21.0211 18.7474H25.7263C25.8526 18.3263 25.9474 17.8842 26.0105 17.4211C26.0737 16.9579 26.1053 16.4842 26.1053 16C26.1053 15.5158 26.0737 15.0421 26.0105 14.5789C25.9474 14.1158 25.8526 13.6737 25.7263 13.2526H21.0211C21.1053 13.7158 21.1684 14.1735 21.2105 14.6257C21.2526 15.0787 21.2737 15.5368 21.2737 16C21.2737 16.4632 21.2526 16.9208 21.2105 17.3731C21.1684 17.8261 21.1053 18.2842 21.0211 18.7474ZM20.6421 11.3579H24.9368C24.2632 10.0316 23.3739 8.93137 22.2691 8.05726C21.1634 7.184 19.8842 6.57895 18.4316 6.24211C18.9158 6.97895 19.3474 7.784 19.7263 8.65726C20.1053 9.53137 20.4105 10.4316 20.6421 11.3579ZM13.2842 11.3579H18.7158C18.4211 10.3053 18.0476 9.33137 17.5954 8.43621C17.1423 7.54189 16.6105 6.70526 16 5.92632C15.3895 6.70526 14.8581 7.54189 14.4059 8.43621C13.9528 9.33137 13.5789 10.3053 13.2842 11.3579ZM7.06316 11.3579H11.3579C11.5895 10.4316 11.8947 9.53137 12.2737 8.65726C12.6526 7.784 13.0842 6.97895 13.5684 6.24211C12.0947 6.57895 10.8105 7.184 9.71579 8.05726C8.62105 8.93137 7.73684 10.0316 7.06316 11.3579Z" fill="white"/>
</svg>
