<svg width="32" height="32" viewBox="0 0 32 32" fill="none" xmlns="http://www.w3.org/2000/svg">
<path d="M20.9668 19.5667C20.8113 19.4111 20.7335 19.2498 20.7335 19.0827C20.7335 18.9164 20.8113 18.7667 20.9668 18.6333L23.5668 16H12.7002C12.5224 16 12.3668 15.9391 12.2335 15.8173C12.1002 15.6947 12.0335 15.5333 12.0335 15.3333C12.0335 15.1333 12.1002 14.972 12.2335 14.8493C12.3668 14.7276 12.5224 14.6667 12.7002 14.6667H23.5668L20.9335 12.0333C20.8002 11.9 20.7335 11.7444 20.7335 11.5667C20.7335 11.3889 20.8113 11.2333 20.9668 11.1C21.1002 10.9444 21.2557 10.8667 21.4335 10.8667C21.6113 10.8667 21.7668 10.9444 21.9002 11.1L25.4002 14.5667C25.5113 14.7 25.589 14.8276 25.6335 14.9493C25.6779 15.072 25.7002 15.2 25.7002 15.3333C25.7002 15.4667 25.6779 15.5942 25.6335 15.716C25.589 15.8387 25.5113 15.9667 25.4002 16.1L21.8668 19.6C21.7335 19.7333 21.5833 19.8 21.4162 19.8C21.2499 19.8 21.1002 19.7222 20.9668 19.5667ZM7.46683 26.6667C6.86683 26.6667 6.36105 26.4613 5.9495 26.0507C5.53883 25.6391 5.3335 25.1222 5.3335 24.5V6.16667C5.3335 5.54444 5.53883 5.028 5.9495 4.61733C6.36105 4.20578 6.86683 4 7.46683 4H15.3668C15.5668 4 15.7282 4.06089 15.8508 4.18267C15.9726 4.30533 16.0335 4.46667 16.0335 4.66667C16.0335 4.86667 15.9726 5.02756 15.8508 5.14933C15.7282 5.272 15.5668 5.33333 15.3668 5.33333H7.46683C7.26683 5.33333 7.08372 5.41689 6.9175 5.584C6.75039 5.75022 6.66683 5.94444 6.66683 6.16667V24.5C6.66683 24.7222 6.75039 24.9164 6.9175 25.0827C7.08372 25.2498 7.26683 25.3333 7.46683 25.3333H15.3668C15.5668 25.3333 15.7282 25.3942 15.8508 25.516C15.9726 25.6387 16.0335 25.8 16.0335 26C16.0335 26.2 15.9726 26.3613 15.8508 26.484C15.7282 26.6058 15.5668 26.6667 15.3668 26.6667H7.46683Z" fill="white" fill-opacity="0.6"/>
</svg>
