<svg width="32" height="32" viewBox="0 0 32 32" fill="none" xmlns="http://www.w3.org/2000/svg">
<path d="M20.8539 20.7167C20.623 20.4438 20.5076 20.134 20.5076 19.7873C20.5076 19.4415 20.623 19.1531 20.8539 18.9222L23.1835 16.5926H14.1483C13.7915 16.5926 13.4927 16.4717 13.2517 16.2299C13.0099 15.989 12.8891 15.6901 12.8891 15.3333C12.8891 14.9765 13.0099 14.6773 13.2517 14.4355C13.4927 14.1945 13.7915 14.0741 14.1483 14.0741H23.1835L20.8539 11.7444C20.602 11.4926 20.4761 11.1937 20.4761 10.8479C20.4761 10.5011 20.602 10.2019 20.8539 9.95C21.0847 9.69815 21.3735 9.57222 21.7202 9.57222C22.0661 9.57222 22.3545 9.68765 22.5853 9.91852L27.1187 14.4519C27.2446 14.5778 27.334 14.7142 27.3869 14.8611C27.439 15.008 27.465 15.1654 27.465 15.3333C27.465 15.5012 27.439 15.6586 27.3869 15.8056C27.334 15.9525 27.2446 16.0889 27.1187 16.2148L22.5853 20.7481C22.3125 21.021 22.0136 21.1415 21.6888 21.1096C21.363 21.0785 21.0847 20.9475 20.8539 20.7167ZM7.85201 26.6667C7.15942 26.6667 6.56631 26.4203 6.07268 25.9275C5.57989 25.4339 5.3335 24.8407 5.3335 24.1481V6.51852C5.3335 5.82593 5.57989 5.23281 6.07268 4.73919C6.56631 4.24639 7.15942 4 7.85201 4H15.4076C15.7644 4 16.0636 4.12047 16.3054 4.36141C16.5464 4.60319 16.6668 4.90247 16.6668 5.25926C16.6668 5.61605 16.5464 5.91491 16.3054 6.15585C16.0636 6.39763 15.7644 6.51852 15.4076 6.51852H7.85201V24.1481H15.4076C15.7644 24.1481 16.0636 24.269 16.3054 24.5108C16.5464 24.7518 16.6668 25.0506 16.6668 25.4074C16.6668 25.7642 16.5464 26.0631 16.3054 26.304C16.0636 26.5458 15.7644 26.6667 15.4076 26.6667H7.85201Z" fill="white"/>
</svg>
