<svg width="32" height="32" viewBox="0 0 32 32" fill="none" xmlns="http://www.w3.org/2000/svg">
<path d="M7.29808 23.9647C8.70159 23.0057 10.0993 22.2571 11.4911 21.7191C12.8829 21.1811 14.3858 20.9121 15.9998 20.9121C17.6139 20.9121 19.1226 21.1811 20.5262 21.7191C21.9297 22.2571 23.3332 23.0057 24.7367 23.9647C25.7425 22.7718 26.4969 21.5203 26.9998 20.2104C27.5028 18.9004 27.7542 17.4969 27.7542 15.9998C27.7542 12.6782 26.6256 9.88873 24.3683 7.63142C22.1109 5.37411 19.3215 4.24545 15.9998 4.24545C12.6782 4.24545 9.88873 5.37411 7.63142 7.63142C5.37411 9.88873 4.24545 12.6782 4.24545 15.9998C4.24545 17.4969 4.49691 18.9004 4.99984 20.2104C5.50276 21.5203 6.26884 22.7718 7.29808 23.9647ZM15.9998 16.8069C14.7367 16.8069 13.6724 16.3741 12.8069 15.5086C11.9414 14.6431 11.5086 13.5788 11.5086 12.3156C11.5086 11.0525 11.9414 9.98814 12.8069 9.12264C13.6724 8.25715 14.7367 7.8244 15.9998 7.8244C17.263 7.8244 18.3273 8.25715 19.1928 9.12264C20.0583 9.98814 20.4911 11.0525 20.4911 12.3156C20.4911 13.5788 20.0583 14.6431 19.1928 15.5086C18.3273 16.3741 17.263 16.8069 15.9998 16.8069ZM15.9998 29.3332C14.1519 29.3332 12.4209 28.9823 10.8069 28.2805C9.19282 27.5788 7.78346 26.6256 6.57878 25.4209C5.37411 24.2162 4.42089 22.8069 3.71914 21.1928C3.01738 19.5788 2.6665 17.8478 2.6665 15.9998C2.6665 14.1519 3.01738 12.4209 3.71914 10.8069C4.42089 9.19282 5.37411 7.78346 6.57878 6.57878C7.78346 5.37411 9.19282 4.42089 10.8069 3.71914C12.4209 3.01738 14.1519 2.6665 15.9998 2.6665C17.8478 2.6665 19.5788 3.01738 21.1928 3.71914C22.8069 4.42089 24.2162 5.37411 25.4209 6.57878C26.6256 7.78346 27.5788 9.19282 28.2805 10.8069C28.9823 12.4209 29.3332 14.1519 29.3332 15.9998C29.3332 17.8478 28.9823 19.5788 28.2805 21.1928C27.5788 22.8069 26.6256 24.2162 25.4209 25.4209C24.2162 26.6256 22.8069 27.5788 21.1928 28.2805C19.5788 28.9823 17.8478 29.3332 15.9998 29.3332ZM15.9998 27.7542C17.3098 27.7542 18.5963 27.5437 19.8595 27.1226C21.1226 26.7016 22.3156 26.0349 23.4384 25.1226C22.3156 24.2805 21.1285 23.6373 19.877 23.1928C18.6256 22.7484 17.3332 22.5262 15.9998 22.5262C14.6665 22.5262 13.3683 22.7484 12.1051 23.1928C10.8419 23.6373 9.66066 24.2805 8.56124 25.1226C9.68405 26.0349 10.877 26.7016 12.1402 27.1226C13.4033 27.5437 14.6899 27.7542 15.9998 27.7542ZM15.9998 15.1928C16.8419 15.1928 17.532 14.9238 18.07 14.3858C18.608 13.8478 18.877 13.1577 18.877 12.3156C18.877 11.4735 18.608 10.7835 18.07 10.2455C17.532 9.70744 16.8419 9.43843 15.9998 9.43843C15.1577 9.43843 14.4677 9.70744 13.9297 10.2455C13.3916 10.7835 13.1226 11.4735 13.1226 12.3156C13.1226 13.1577 13.3916 13.8478 13.9297 14.3858C14.4677 14.9238 15.1577 15.1928 15.9998 15.1928Z" fill="white" fill-opacity="0.6"/>
</svg>
