<svg width="32" height="32" viewBox="0 0 32 32" fill="none" xmlns="http://www.w3.org/2000/svg">
<path d="M7.29808 23.9647C8.70159 23.0525 10.0934 22.3566 11.4735 21.877C12.8536 21.3975 14.3624 21.1577 15.9998 21.1577C17.6373 21.1577 19.1519 21.3975 20.5437 21.877C21.9355 22.3566 23.3332 23.0525 24.7367 23.9647C25.7425 22.7718 26.4969 21.5203 26.9998 20.2104C27.5028 18.9004 27.7542 17.4969 27.7542 15.9998C27.7542 12.6782 26.6256 9.88873 24.3683 7.63142C22.1109 5.37411 19.3215 4.24545 15.9998 4.24545C12.6782 4.24545 9.88873 5.37411 7.63142 7.63142C5.37411 9.88873 4.24545 12.6782 4.24545 15.9998C4.24545 17.4969 4.49691 18.9004 4.99984 20.2104C5.50276 21.5203 6.26884 22.7718 7.29808 23.9647ZM15.9998 16.8069C14.7367 16.8069 13.6724 16.3741 12.8069 15.5086C11.9414 14.6431 11.5086 13.5788 11.5086 12.3156C11.5086 11.0525 11.9414 9.98814 12.8069 9.12264C13.6724 8.25715 14.7367 7.8244 15.9998 7.8244C17.263 7.8244 18.3273 8.25715 19.1928 9.12264C20.0583 9.98814 20.4911 11.0525 20.4911 12.3156C20.4911 13.5788 20.0583 14.6431 19.1928 15.5086C18.3273 16.3741 17.263 16.8069 15.9998 16.8069ZM15.9998 29.3332C14.1519 29.3332 12.415 28.9823 10.7893 28.2805C9.16358 27.5788 7.74838 26.6256 6.5437 25.4209C5.33902 24.2162 4.39165 22.8069 3.70159 21.1928C3.01153 19.5788 2.6665 17.8361 2.6665 15.9648C2.6665 14.1402 3.01738 12.415 3.71914 10.7893C4.42089 9.16358 5.37411 7.75422 6.57878 6.56124C7.78346 5.36826 9.19282 4.42089 10.8069 3.71914C12.4209 3.01738 14.1636 2.6665 16.0349 2.6665C17.8595 2.6665 19.5846 3.01738 21.2104 3.71914C22.8361 4.42089 24.2455 5.36826 25.4384 6.56124C26.6314 7.75422 27.5788 9.16358 28.2805 10.7893C28.9823 12.415 29.3332 14.1519 29.3332 15.9998C29.3332 17.8478 28.9823 19.5788 28.2805 21.1928C27.5788 22.8069 26.6314 24.2162 25.4384 25.4209C24.2455 26.6256 22.8361 27.5788 21.2104 28.2805C19.5846 28.9823 17.8478 29.3332 15.9998 29.3332Z" fill="white"/>
</svg>
