<svg width="32" height="32" viewBox="0 0 32 32" fill="none" xmlns="http://www.w3.org/2000/svg">
<path d="M18.3046 29.3332H14.8602C14.5886 29.3332 14.3417 29.2344 14.1195 29.0369C13.8972 28.8393 13.7614 28.5924 13.7121 28.2961L13.3046 25.0369C12.8355 24.9134 12.3234 24.6976 11.7683 24.3895C11.2123 24.0803 10.7491 23.7529 10.3787 23.4072L7.41575 24.6665C7.11946 24.79 6.82958 24.8023 6.54612 24.7035C6.26168 24.6048 6.04538 24.4196 5.89724 24.148L4.15649 21.185C4.00835 20.9134 3.96538 20.6295 4.02761 20.3332C4.08884 20.0369 4.24291 19.8023 4.48983 19.6295L7.08242 17.6665C7.03304 17.4196 6.99007 17.1539 6.95353 16.8695C6.916 16.586 6.89723 16.3085 6.89723 16.0369C6.89723 15.79 6.916 15.5243 6.95353 15.2398C6.99007 14.9564 7.03304 14.6542 7.08242 14.3332L4.48983 12.3702C4.24291 12.1974 4.08884 11.9628 4.02761 11.6665C3.96538 11.3702 4.00835 11.0863 4.15649 10.8147L5.89724 7.88873C6.04538 7.61712 6.25526 7.43194 6.52686 7.33317C6.79847 7.23441 7.08242 7.24675 7.37872 7.37021L10.3417 8.62947C10.7861 8.2591 11.2617 7.92576 11.7683 7.62947C12.274 7.33317 12.7738 7.11095 13.2676 6.9628L13.7121 3.70354C13.7614 3.40724 13.8972 3.16033 14.1195 2.9628C14.3417 2.76527 14.5886 2.6665 14.8602 2.6665H18.3046C18.6009 2.6665 18.8602 2.76527 19.0824 2.9628C19.3046 3.16033 19.4404 3.40724 19.4898 3.70354L19.8972 6.9628C20.4651 7.18502 20.9654 7.41959 21.398 7.6665C21.8296 7.91342 22.2799 8.23441 22.7491 8.62947L25.8232 7.37021C26.1195 7.24675 26.4034 7.23441 26.675 7.33317C26.9466 7.43194 27.1565 7.60478 27.3046 7.85169L29.0454 10.8147C29.1935 11.0863 29.237 11.3702 29.1758 11.6665C29.1135 11.9628 28.959 12.1974 28.712 12.3702L26.0083 14.4072C26.1071 14.7035 26.1565 14.9816 26.1565 15.2413V15.9998C26.1565 16.2221 26.1506 16.463 26.1387 16.7228C26.1259 16.9816 26.0824 17.2961 26.0083 17.6665L28.638 19.6295C28.9096 19.8023 29.0701 20.0369 29.1195 20.3332C29.1688 20.6295 29.1195 20.9134 28.9713 21.185L27.2306 24.148C27.0824 24.4196 26.8666 24.5984 26.5832 24.6843C26.2987 24.7712 26.0083 24.7529 25.712 24.6295L22.7491 23.3702C22.2799 23.7653 21.8172 24.0986 21.3609 24.3702C20.9037 24.6418 20.4158 24.864 19.8972 25.0369L19.4898 28.2961C19.4404 28.5924 19.3046 28.8393 19.0824 29.0369C18.8602 29.2344 18.6009 29.3332 18.3046 29.3332ZM16.5639 19.7035C17.6009 19.7035 18.4775 19.3455 19.1935 18.6295C19.9096 17.9134 20.2676 17.0369 20.2676 15.9998C20.2676 14.9628 19.9096 14.0863 19.1935 13.3702C18.4775 12.6542 17.6009 12.2961 16.5639 12.2961C15.5269 12.2961 14.6503 12.6542 13.9343 13.3702C13.2182 14.0863 12.8602 14.9628 12.8602 15.9998C12.8602 17.0369 13.2182 17.9134 13.9343 18.6295C14.6503 19.3455 15.5269 19.7035 16.5639 19.7035Z" fill="white"/>
</svg>
