<svg width="32" height="32" viewBox="0 0 32 32" fill="none" xmlns="http://www.w3.org/2000/svg">
<path d="M17.7596 29.3332H14.4464C14.1852 29.3332 13.9477 29.2344 13.7339 29.0369C13.5202 28.8393 13.3895 28.5924 13.342 28.2961L12.9501 25.0369C12.4989 24.9134 12.0063 24.6976 11.4724 24.3895C10.9375 24.0803 10.492 23.7529 10.1357 23.4072L7.28562 24.6665C7.00061 24.79 6.72178 24.8023 6.44912 24.7035C6.17551 24.6048 5.96746 24.4196 5.82495 24.148L4.15053 21.185C4.00803 20.9134 3.9667 20.6295 4.02655 20.3332C4.08546 20.0369 4.23366 19.8023 4.47117 19.6295L6.96498 17.6665C6.91748 17.4196 6.87616 17.1539 6.841 16.8695C6.8049 16.586 6.78685 16.3085 6.78685 16.0369C6.78685 15.79 6.8049 15.5243 6.841 15.2398C6.87616 14.9564 6.91748 14.6542 6.96498 14.3332L4.47117 12.3702C4.23366 12.1974 4.08546 11.9628 4.02655 11.6665C3.9667 11.3702 4.00803 11.0863 4.15053 10.8147L5.82495 7.88873C5.96746 7.61712 6.16934 7.43194 6.43059 7.33317C6.69185 7.23441 6.96498 7.24675 7.24999 7.37021L10.1001 8.62947C10.5276 8.2591 10.985 7.92576 11.4724 7.62947C11.9588 7.33317 12.4395 7.11095 12.9145 6.9628L13.342 3.70354C13.3895 3.40724 13.5202 3.16033 13.7339 2.9628C13.9477 2.76527 14.1852 2.6665 14.4464 2.6665H17.7596C18.0447 2.6665 18.294 2.76527 18.5078 2.9628C18.7216 3.16033 18.8522 3.40724 18.8997 3.70354L19.2916 6.9628C19.8378 7.18502 20.319 7.41959 20.7351 7.6665C21.1503 7.91342 21.5835 8.23441 22.0348 8.62947L24.9917 7.37021C25.2767 7.24675 25.5499 7.23441 25.8111 7.33317C26.0724 7.43194 26.2743 7.60478 26.4168 7.85169L28.0912 10.8147C28.2337 11.0863 28.2755 11.3702 28.2166 11.6665C28.1567 11.9628 28.0081 12.1974 27.7705 12.3702L25.1699 14.4072C25.2649 14.7035 25.3124 14.9816 25.3124 15.2413V15.9998C25.3124 16.2221 25.3067 16.463 25.2953 16.7228C25.2829 16.9816 25.2411 17.2961 25.1699 17.6665L27.6993 19.6295C27.9606 19.8023 28.1149 20.0369 28.1624 20.3332C28.2099 20.6295 28.1624 20.9134 28.0199 21.185L26.3455 24.148C26.203 24.4196 25.9954 24.5984 25.7228 24.6843C25.4492 24.7712 25.1699 24.7529 24.8848 24.6295L22.0348 23.3702C21.5835 23.7653 21.1384 24.0986 20.6995 24.3702C20.2596 24.6418 19.7903 24.864 19.2916 25.0369L18.8997 28.2961C18.8522 28.5924 18.7216 28.8393 18.5078 29.0369C18.294 29.2344 18.0447 29.3332 17.7596 29.3332ZM16.0852 19.7035C17.0828 19.7035 17.9259 19.3455 18.6147 18.6295C19.3034 17.9134 19.6478 17.0369 19.6478 15.9998C19.6478 14.9628 19.3034 14.0863 18.6147 13.3702C17.9259 12.6542 17.0828 12.2961 16.0852 12.2961C15.0877 12.2961 14.2446 12.6542 13.5558 13.3702C12.867 14.0863 12.5226 14.9628 12.5226 15.9998C12.5226 17.0369 12.867 17.9134 13.5558 18.6295C14.2446 19.3455 15.0877 19.7035 16.0852 19.7035ZM16.0852 18.2221C15.4915 18.2221 14.987 18.0058 14.5718 17.5732C14.1557 17.1416 13.9477 16.6171 13.9477 15.9998C13.9477 15.3826 14.1557 14.8581 14.5718 14.4265C14.987 13.9939 15.4915 13.7776 16.0852 13.7776C16.679 13.7776 17.1839 13.9939 17.6 14.4265C18.0152 14.8581 18.2228 15.3826 18.2228 15.9998C18.2228 16.6171 18.0152 17.1416 17.6 17.5732C17.1839 18.0058 16.679 18.2221 16.0852 18.2221ZM14.6958 27.8517H17.4746L18.009 23.8517C18.7216 23.6542 19.369 23.3826 19.9514 23.0369C20.5328 22.6912 21.1204 22.2097 21.7141 21.5924L25.2411 23.185L26.6661 20.6665L23.5667 18.2221C23.6854 17.8023 23.7629 17.4132 23.799 17.0547C23.8341 16.6971 23.8517 16.3455 23.8517 15.9998C23.8517 15.6295 23.8341 15.2774 23.799 14.9435C23.7629 14.6107 23.6854 14.2344 23.5667 13.8147L26.7374 11.3332L25.3124 8.81465L21.6785 10.4072C21.251 9.91342 20.6872 9.45021 19.987 9.01762C19.2859 8.58601 18.6147 8.29613 17.9734 8.14799L17.5459 4.14799H14.6958L14.2683 8.14799C13.5558 8.29613 12.8965 8.54897 12.2904 8.9065C11.6852 9.26502 11.0857 9.75292 10.492 10.3702L6.92936 8.81465L5.50432 11.3332L8.60378 13.7406C8.48502 14.0616 8.4019 14.4196 8.3544 14.8147C8.3069 15.2097 8.28314 15.6171 8.28314 16.0369C8.28314 16.4072 8.3069 16.7776 8.3544 17.148C8.4019 17.5184 8.47315 17.8764 8.56815 18.2221L5.50432 20.6665L6.92936 23.185L10.4563 21.6295C11.0263 22.2221 11.6082 22.6912 12.202 23.0369C12.7958 23.3826 13.4727 23.6542 14.2327 23.8517L14.6958 27.8517Z" fill="white" fill-opacity="0.6"/>
</svg>
