<svg width="32" height="32" viewBox="0 0 32 32" fill="none" xmlns="http://www.w3.org/2000/svg">
<g clip-path="url(#clip0_1096_12327)">
<mask id="mask0_1096_12327" style="mask-type:alpha" maskUnits="userSpaceOnUse" x="0" y="0" width="32" height="32">
<rect width="32" height="32" fill="#D9D9D9"/>
</mask>
<g mask="url(#mask0_1096_12327)">
<path d="M5.12251 27.8533C4.79511 27.8533 4.52618 27.742 4.31571 27.5194C4.10524 27.2977 4 27.0348 4 26.7308V13.5413C4 13.2373 4.10524 12.9745 4.31571 12.7528C4.52618 12.5301 4.79511 12.4188 5.12251 12.4188H9.15653C9.48393 12.4188 9.75894 12.5301 9.98157 12.7528C10.2033 12.9745 10.3141 13.2373 10.3141 13.5413V26.7308C10.3141 27.0348 10.2033 27.2977 9.98157 27.5194C9.75894 27.742 9.49562 27.8533 9.19161 27.8533H5.12251ZM14.1026 27.8533C13.7752 27.8533 13.5063 27.742 13.2958 27.5194C13.0853 27.2977 12.9801 27.0348 12.9801 26.7308V5.12251C12.9801 4.8185 13.0914 4.55517 13.314 4.33254C13.5357 4.11085 13.7986 4 14.1026 4H18.1717C18.4991 4 18.768 4.11085 18.9785 4.33254C19.189 4.55517 19.2942 4.8185 19.2942 5.12251V26.7308C19.2942 27.0348 19.1829 27.2977 18.9602 27.5194C18.7386 27.742 18.4757 27.8533 18.1717 27.8533H14.1026ZM23.0476 27.8533C22.7202 27.8533 22.4513 27.742 22.2408 27.5194C22.0303 27.2977 21.9251 27.0348 21.9251 26.7308V16.3476C21.9251 16.0436 22.0303 15.7807 22.2408 15.559C22.4513 15.3364 22.7202 15.2251 23.0476 15.2251H27.0816C27.409 15.2251 27.684 15.3364 27.9067 15.559C28.1283 15.7807 28.2392 16.0436 28.2392 16.3476V26.7308C28.2392 27.0348 28.1283 27.2977 27.9067 27.5194C27.684 27.742 27.409 27.8533 27.0816 27.8533H23.0476Z" fill="white"/>
</g>
</g>
<defs>
<clipPath id="clip0_1096_12327">
<rect width="32" height="32" fill="white"/>
</clipPath>
</defs>
</svg>
