<svg width="32" height="32" viewBox="0 0 32 32" fill="none" xmlns="http://www.w3.org/2000/svg">
<g clip-path="url(#clip0_1096_12336)">
<mask id="mask0_1096_12336" style="mask-type:alpha" maskUnits="userSpaceOnUse" x="0" y="0" width="32" height="32">
<rect width="32" height="32" fill="#D9D9D9"/>
</mask>
<g mask="url(#mask0_1096_12336)">
<path d="M4.07001 14.7018V25.5789C4.07001 25.8363 4.15188 26.0468 4.31563 26.2105C4.47937 26.3743 4.6899 26.4561 4.94721 26.4561H11.0876V13.8246H4.94721C4.6899 13.8246 4.47937 13.9064 4.31563 14.0702C4.15188 14.2339 4.07001 14.4444 4.07001 14.7018ZM12.4911 6.2807V26.4561H19.5086V6.2807C19.5086 6.02339 19.4267 5.81287 19.263 5.64912C19.0993 5.48538 18.8887 5.40351 18.6314 5.40351H13.3683C13.1109 5.40351 12.9004 5.48538 12.7367 5.64912C12.5729 5.81287 12.4911 6.02339 12.4911 6.2807ZM20.9121 16.6316V26.4561H27.0525C27.3098 26.4561 27.5203 26.3743 27.684 26.2105C27.8478 26.0468 27.9297 25.8363 27.9297 25.5789V17.5088C27.9297 17.2515 27.8478 17.0409 27.684 16.8772C27.5203 16.7135 27.3098 16.6316 27.0525 16.6316H20.9121ZM27.0525 27.8596H4.94721C4.31563 27.8596 3.77761 27.6374 3.33317 27.193C2.88873 26.7485 2.6665 26.2105 2.6665 25.5789V14.7018C2.6665 14.0702 2.88873 13.5322 3.33317 13.0877C3.77761 12.6433 4.31563 12.4211 4.94721 12.4211H11.0876V6.2807C11.0876 5.64912 11.3098 5.11111 11.7542 4.66667C12.1987 4.22222 12.7367 4 13.3683 4H18.6314C19.263 4 19.801 4.22222 20.2455 4.66667C20.6899 5.11111 20.9121 5.64912 20.9121 6.2807V15.2281H27.0525C27.684 15.2281 28.2221 15.4503 28.6665 15.8947C29.1109 16.3392 29.3332 16.8772 29.3332 17.5088V25.5789C29.3332 26.2105 29.1109 26.7485 28.6665 27.193C28.2221 27.6374 27.684 27.8596 27.0525 27.8596Z" fill="white" fill-opacity="0.6"/>
</g>
</g>
<defs>
<clipPath id="clip0_1096_12336">
<rect width="32" height="32" fill="white"/>
</clipPath>
</defs>
</svg>
