<svg width="32" height="32" viewBox="0 0 32 32" fill="none" xmlns="http://www.w3.org/2000/svg">
<path d="M5.29412 26.6276C4.9281 26.6276 4.62118 26.5032 4.37333 26.2543C4.12444 26.0064 4 25.7126 4 25.3727V13.6864C4 13.5296 4.03294 13.3727 4.09882 13.2158C4.16366 13.059 4.26144 12.9152 4.39216 12.7845L10.9804 6.19624C11.1111 6.06552 11.2486 5.97402 11.3929 5.92173C11.5362 5.86944 11.6863 5.8433 11.8431 5.8433C12.0261 5.8433 12.1898 5.86944 12.3341 5.92173C12.4774 5.97402 12.6144 6.06552 12.7451 6.19624L19.3333 12.7845C19.4641 12.9152 19.5556 13.059 19.6078 13.2158C19.6601 13.3727 19.6863 13.5296 19.6863 13.6864V25.3727C19.6863 25.7126 19.5686 26.0064 19.3333 26.2543C19.098 26.5032 18.7974 26.6276 18.4314 26.6276H5.29412ZM5.56863 25.059H10.6667V22.6276C10.6667 22.3139 10.778 22.0394 11.0008 21.8041C11.2225 21.5688 11.5033 21.4511 11.8431 21.4511C12.183 21.4511 12.4706 21.5688 12.7059 21.8041C12.9412 22.0394 13.0588 22.3139 13.0588 22.6276V25.059H18.1176V13.8041L11.8431 7.52957L5.56863 13.8041V25.059ZM11.8431 16.8629C11.5033 16.8629 11.2225 16.7453 11.0008 16.51C10.778 16.2747 10.6667 15.9871 10.6667 15.6472C10.6667 15.3335 10.7843 15.0522 11.0196 14.8033C11.2549 14.5555 11.5294 14.4315 11.8431 14.4315C12.183 14.4315 12.4706 14.5555 12.7059 14.8033C12.9412 15.0522 13.0588 15.3335 13.0588 15.6472C13.0588 15.9609 12.9412 16.2417 12.7059 16.4896C12.4706 16.7385 12.183 16.8629 11.8431 16.8629ZM23.0196 26.6668C22.7843 26.6668 22.595 26.5884 22.4518 26.4315C22.3075 26.2747 22.2353 26.0917 22.2353 25.8825V12.3923C22.2353 12.3662 22.1699 12.2093 22.0392 11.9217L16.7843 6.66683C16.5229 6.40539 16.4575 6.11781 16.5882 5.80408C16.719 5.49036 16.9673 5.3335 17.3333 5.3335C17.4379 5.3335 17.5425 5.35336 17.6471 5.3931C17.7516 5.4318 17.8431 5.49036 17.9216 5.56879L23.4118 11.0982C23.5686 11.2289 23.6732 11.3664 23.7255 11.5108C23.7778 11.654 23.8039 11.8041 23.8039 11.9609V25.8825C23.8039 26.0917 23.7255 26.2747 23.5686 26.4315C23.4118 26.5884 23.2288 26.6668 23.0196 26.6668ZM27.1373 26.6668C26.902 26.6668 26.7127 26.5884 26.5694 26.4315C26.4251 26.2747 26.3529 26.0917 26.3529 25.8825V10.706C26.3529 10.6538 26.2745 10.4838 26.1176 10.1962L22.6275 6.70605C22.366 6.44461 22.3075 6.15075 22.4518 5.82448C22.595 5.49716 22.8366 5.3335 23.1765 5.3335C23.281 5.3335 23.3856 5.35336 23.4902 5.3931C23.5948 5.4318 23.6863 5.49036 23.7647 5.56879L27.5294 9.37271C27.6601 9.50343 27.7579 9.64722 27.8227 9.80408C27.8886 9.96095 27.9216 10.1178 27.9216 10.2747V25.8825C27.9216 26.0917 27.8431 26.2747 27.6863 26.4315C27.5294 26.5884 27.3464 26.6668 27.1373 26.6668Z" fill="white" fill-opacity="0.6"/>
</svg>
