<svg width="32" height="32" viewBox="0 0 32 32" fill="none" xmlns="http://www.w3.org/2000/svg">
<path d="M3.92349 13.6515C3.4577 13.6515 3.10162 13.4444 2.85527 13.0304C2.60995 12.6164 2.60374 12.2023 2.83664 11.7883L7.30049 3.98625C7.45576 3.77923 7.62396 3.62397 7.8051 3.52046C7.98624 3.41695 8.19326 3.36519 8.42616 3.36519C8.63318 3.36519 8.82726 3.41695 9.0084 3.52046C9.18954 3.62397 9.35775 3.77923 9.51301 3.98625L13.9769 11.7883C14.2098 12.2023 14.203 12.6164 13.9567 13.0304C13.7114 13.4444 13.3558 13.6515 12.89 13.6515H3.92349ZM8.42616 29.3332C6.89939 29.3332 5.61225 28.8027 4.56473 27.7417C3.51618 26.6807 2.9919 25.3869 2.9919 23.8601C2.9919 22.3333 3.51618 21.0395 4.56473 19.9785C5.61225 18.9175 6.89939 18.387 8.42616 18.387C9.95293 18.387 11.2468 18.9175 12.3078 19.9785C13.3687 21.0395 13.8992 22.3333 13.8992 23.8601C13.8992 25.3869 13.3687 26.6807 12.3078 27.7417C11.2468 28.8027 9.95293 29.3332 8.42616 29.3332ZM19.7216 29.3332C19.3594 29.3332 19.0618 29.2105 18.8289 28.9652C18.596 28.7188 18.4795 28.4145 18.4795 28.0522V19.668C18.4795 19.3057 18.596 19.0014 18.8289 18.755C19.0618 18.5097 19.3594 18.387 19.7216 18.387H28.1447C28.507 18.387 28.8046 18.5097 29.0375 18.755C29.2704 19.0014 29.3869 19.3057 29.3869 19.668V28.0522C29.3869 28.4145 29.2704 28.7188 29.0375 28.9652C28.8046 29.2105 28.507 29.3332 28.1447 29.3332H19.7216ZM23.9526 13.1857C23.7715 13.1857 23.6033 13.1598 23.448 13.108C23.2927 13.0563 23.1375 12.9787 22.9822 12.8751C21.9989 12.0988 21.1511 11.4001 20.439 10.7791C19.7279 10.158 19.1523 9.57577 18.7124 9.03235C18.2725 8.48892 17.949 7.95843 17.742 7.44089C17.535 6.92334 17.4315 6.39285 17.4315 5.84943C17.4315 4.91784 17.7358 4.15445 18.3445 3.55927C18.9521 2.96409 19.7216 2.6665 20.6532 2.6665C21.2743 2.6665 21.8498 2.81504 22.3798 3.11211C22.9108 3.41022 23.4351 3.8698 23.9526 4.49086C24.4443 3.89568 24.968 3.44283 25.5239 3.1323C26.0808 2.82177 26.6568 2.6665 27.252 2.6665C28.1577 2.6665 28.9149 2.98324 29.5235 3.61672C30.1311 4.25124 30.4349 5.03429 30.4349 5.96587C30.4349 6.43167 30.3314 6.91661 30.1244 7.4207C29.9173 7.92583 29.5877 8.45632 29.1353 9.01216C28.682 9.56904 28.1059 10.158 27.4072 10.7791C26.7085 11.4001 25.8675 12.0988 24.8842 12.8751C24.7548 12.9787 24.6063 13.0563 24.4386 13.108C24.2699 13.1598 24.1079 13.1857 23.9526 13.1857Z" fill="white"/>
</svg>
