<svg width="32" height="32" viewBox="0 0 32 32" fill="none" xmlns="http://www.w3.org/2000/svg">
<path d="M3.92312 13.6515C3.45733 13.6515 3.10177 13.4444 2.85646 13.0304C2.6101 12.6164 2.60338 12.2023 2.83627 11.7883L7.30012 3.98625C7.45539 3.77923 7.62359 3.62397 7.80473 3.52046C7.98588 3.41695 8.1929 3.36519 8.42579 3.36519C8.63281 3.36519 8.82689 3.41695 9.00803 3.52046C9.18918 3.62397 9.35738 3.77923 9.51264 3.98625L13.9765 11.7883C14.2094 12.2023 14.2032 12.6164 13.9579 13.0304C13.7115 13.4444 13.3554 13.6515 12.8896 13.6515H3.92312ZM8.42579 29.3332C6.89903 29.3332 5.61136 28.8027 4.56281 27.7417C3.51529 26.6807 2.99154 25.3869 2.99154 23.8601C2.99154 22.3333 3.51529 21.0395 4.56281 19.9785C5.61136 18.9175 6.89903 18.387 8.42579 18.387C9.95256 18.387 11.2464 18.9175 12.3074 19.9785C13.3684 21.0395 13.8989 22.3333 13.8989 23.8601C13.8989 25.3869 13.3684 26.6807 12.3074 27.7417C11.2464 28.8027 9.95256 29.3332 8.42579 29.3332ZM8.42579 27.7805C9.53852 27.7805 10.4701 27.3991 11.2206 26.6362C11.971 25.8723 12.3462 24.947 12.3462 23.8601C12.3462 22.7732 11.971 21.8479 11.2206 21.084C10.4701 20.3211 9.53852 19.9397 8.42579 19.9397C7.33894 19.9397 6.42029 20.3211 5.66985 21.084C4.9194 21.8479 4.54418 22.7732 4.54418 23.8601C4.54418 24.947 4.9194 25.8723 5.66985 26.6362C6.42029 27.3991 7.33894 27.7805 8.42579 27.7805ZM4.46655 12.0988H12.385L8.42579 5.22837L4.46655 12.0988ZM19.7213 29.3332C19.359 29.3332 19.0614 29.2105 18.8285 28.9652C18.5956 28.7188 18.4792 28.4145 18.4792 28.0522V19.668C18.4792 19.3057 18.5956 19.0014 18.8285 18.755C19.0614 18.5097 19.359 18.387 19.7213 18.387H28.1444C28.5067 18.387 28.8043 18.5097 29.0371 18.755C29.27 19.0014 29.3865 19.3057 29.3865 19.668V28.0522C29.3865 28.4145 29.27 28.7188 29.0371 28.9652C28.8043 29.2105 28.5067 29.3332 28.1444 29.3332H19.7213ZM20.0318 27.7805H27.8338V19.9397H20.0318V27.7805ZM23.9134 13.1857C23.7582 13.1857 23.6029 13.1598 23.4476 13.108C23.2924 13.0563 23.1371 12.9787 22.9818 12.8751C21.9985 12.0988 21.1513 11.4001 20.4402 10.7791C19.728 10.158 19.152 9.57577 18.7121 9.03235C18.2721 8.48892 17.9487 7.95843 17.7417 7.44089C17.5346 6.92334 17.4311 6.39285 17.4311 5.84943C17.4311 4.91784 17.7354 4.15445 18.3441 3.55927C18.9517 2.96409 19.7213 2.6665 20.6529 2.6665C21.2739 2.6665 21.85 2.81504 22.381 3.11211C22.9109 3.41022 23.4347 3.8698 23.9522 4.49086C24.4439 3.89568 24.9677 3.44283 25.5235 3.1323C26.0804 2.82177 26.6564 2.6665 27.2516 2.6665C28.1573 2.6665 28.9145 2.98324 29.5231 3.61672C30.1307 4.25124 30.4345 5.03429 30.4345 5.96587C30.4345 6.43167 30.331 6.91661 30.124 7.4207C29.917 7.92583 29.5873 8.45632 29.135 9.01216C28.6816 9.56904 28.1056 10.158 27.4069 10.7791C26.7082 11.4001 25.8672 12.0988 24.8838 12.8751C24.7544 12.9787 24.6059 13.0563 24.4382 13.108C24.2695 13.1598 24.0946 13.1857 23.9134 13.1857ZM23.9522 11.633C25.7378 10.2356 27.0058 9.10325 27.7562 8.23584C28.5067 7.36946 28.8819 6.59987 28.8819 5.92706C28.8819 5.43539 28.7266 5.02756 28.4161 4.70357C28.1056 4.38062 27.7174 4.21915 27.2516 4.21915C26.9152 4.21915 26.5855 4.31593 26.2626 4.50949C25.9386 4.70409 25.4919 5.08604 24.9226 5.65534L23.9522 6.66456L22.943 5.65534C22.3478 5.08604 21.9017 4.70409 21.6046 4.50949C21.3065 4.31593 20.9763 4.21915 20.6141 4.21915C20.1224 4.21915 19.728 4.36768 19.4309 4.66476C19.1328 4.96287 18.9838 5.37069 18.9838 5.88824C18.9838 6.58693 19.359 7.36946 20.1094 8.23584C20.8599 9.10325 22.1408 10.2356 23.9522 11.633Z" fill="white" fill-opacity="0.6"/>
</svg>
