<svg width="32" height="32" viewBox="0 0 32 32" fill="none" xmlns="http://www.w3.org/2000/svg">
<path d="M13.6147 14.7177C12.3113 14.7177 11.2035 14.2615 10.2911 13.3491C9.37879 12.4368 8.92261 11.3289 8.92261 10.0256C8.92261 8.74829 9.37879 7.64669 10.2911 6.72079C11.2035 5.79593 12.3113 5.3335 13.6147 5.3335C14.9181 5.3335 16.0259 5.79593 16.9383 6.72079C17.8506 7.64669 18.3068 8.74829 18.3068 10.0256C18.3068 11.3289 17.8506 12.4368 16.9383 13.3491C16.0259 14.2615 14.9181 14.7177 13.6147 14.7177ZM3.95683 26.0569C3.56582 26.0569 3.25301 25.9328 3.01841 25.6846C2.78381 25.4375 2.6665 25.1315 2.6665 24.7665V23.4762C2.6665 22.7463 2.84897 22.1207 3.21391 21.5994C3.57885 21.078 4.08716 20.661 4.73884 20.3482C6.01613 19.7226 7.32626 19.2142 8.66924 18.8232C10.0112 18.4322 11.6597 18.2367 13.6147 18.2367H14.3185C14.2142 18.4974 14.1298 18.7581 14.0651 19.0187C13.9994 19.2794 13.9405 19.5401 13.8884 19.8008H13.6147C11.8682 19.8008 10.3433 19.9764 9.03992 20.3278C7.73656 20.6803 6.55051 21.1432 5.48175 21.7167C5.01255 21.9774 4.68671 22.2448 4.50424 22.519C4.32177 22.7922 4.23053 23.1113 4.23053 23.4762V24.4928H14.0839C14.1621 24.7274 14.2533 24.9881 14.3576 25.2748C14.4619 25.5616 14.5792 25.8223 14.7095 26.0569H3.95683ZM13.6147 13.1536C14.4749 13.1536 15.2116 12.8471 15.8247 12.234C16.4367 11.6219 16.7428 10.8858 16.7428 10.0256C16.7428 9.16536 16.4367 8.42923 15.8247 7.81717C15.2116 7.20407 14.4749 6.89752 13.6147 6.89752C12.7545 6.89752 12.0183 7.20407 11.4063 7.81717C10.7932 8.42923 10.4866 9.16536 10.4866 10.0256C10.4866 10.8858 10.7932 11.6219 11.4063 12.234C12.0183 12.8471 12.7545 13.1536 13.6147 13.1536ZM23.9764 23.6326C24.7584 23.6326 25.4231 23.3589 25.9705 22.8115C26.5179 22.2641 26.7916 21.5994 26.7916 20.8174C26.7916 20.0354 26.5117 19.3644 25.9517 18.8045C25.3908 18.2435 24.7323 17.963 23.9764 17.963C23.1944 17.963 22.5234 18.2435 21.9635 18.8045C21.4025 19.3644 21.122 20.0354 21.122 20.8174C21.122 21.5994 21.4025 22.2641 21.9635 22.8115C22.5234 23.3589 23.1944 23.6326 23.9764 23.6326ZM23.1162 25.0011C22.673 24.8969 22.2627 24.7405 21.8853 24.5319C21.5068 24.3234 21.1611 24.0497 20.8483 23.7108L19.5189 24.2582C19.3886 24.3104 19.2713 24.3104 19.167 24.2582C19.0627 24.2061 18.9845 24.1149 18.9324 23.9845L18.6978 23.6326C18.6457 23.5284 18.6264 23.4178 18.6399 23.301C18.6524 23.1832 18.7108 23.0852 18.8151 23.007L19.9099 22.1859C19.7535 21.7428 19.6753 21.2866 19.6753 20.8174C19.6753 20.3482 19.7535 19.892 19.9099 19.4488L18.8542 18.5495C18.7499 18.4713 18.6848 18.3733 18.6587 18.2555C18.6326 18.1387 18.6587 18.0152 18.7369 17.8848L18.9324 17.5329C19.0106 17.4286 19.1018 17.3567 19.2061 17.3171C19.3104 17.2785 19.4277 17.2853 19.558 17.3374L20.8483 17.8848C21.1351 17.5459 21.4739 17.2722 21.8649 17.0637C22.2559 16.8552 22.673 16.7118 23.1162 16.6336L23.2726 15.226C23.2986 15.1217 23.3575 15.0305 23.4493 14.9523C23.54 14.8741 23.6505 14.835 23.7809 14.835H24.211C24.3413 14.835 24.4524 14.8741 24.5441 14.9523C24.6348 15.0305 24.6932 15.1217 24.7193 15.226L24.8366 16.6336C25.2797 16.7118 25.6968 16.8552 26.0878 17.0637C26.4788 17.2722 26.8177 17.5459 27.1044 17.8848L28.3948 17.3374C28.5251 17.2853 28.6492 17.2853 28.767 17.3374C28.8838 17.3895 28.9682 17.4677 29.0204 17.572L29.255 17.963C29.3071 18.0673 29.3201 18.1716 29.2941 18.2758C29.268 18.3801 29.2159 18.4713 29.1377 18.5495L28.0429 19.4488C28.1993 19.892 28.2775 20.3482 28.2775 20.8174C28.2775 21.2866 28.1993 21.7428 28.0429 22.1859L29.1377 23.007C29.268 23.0852 29.3332 23.1895 29.3332 23.3198C29.3332 23.4501 29.2941 23.5805 29.2159 23.7108L29.0204 24.0627C28.9422 24.1409 28.8509 24.2061 28.7467 24.2582C28.6424 24.3104 28.5381 24.3104 28.4339 24.2582L27.1044 23.7108C26.7916 24.0497 26.446 24.3234 26.0675 24.5319C25.69 24.7405 25.2797 24.8969 24.8366 25.0011L24.7193 26.3697C24.6932 26.5 24.6348 26.6043 24.5441 26.6825C24.4524 26.7607 24.3413 26.7998 24.211 26.7998H23.7809C23.6505 26.7998 23.54 26.7607 23.4493 26.6825C23.3575 26.6043 23.2986 26.5 23.2726 26.3697L23.1162 25.0011Z" fill="white" fill-opacity="0.6"/>
</svg>
